# xmcd
#
# Track frame offsets:
#	150
#	16081
#	29940
#	42833
#	62436
#	78189
#	86492
#	101816
#	115001
#	128225
#	144485
#	162484
#
# Disc length: 2340 seconds
#
# Revision: 1
# Processed by: cddbd v1.5.1PL0 Copyright (c) Steve Scherf et al.
# Submitted via: audiograbber 1.83.01
#
DISCID=9709220c
DTITLE=Blue Highway - Marbletown
DYEAR=2005
DGENRE=Bluegrass
TTITLE0=Marbletown
TTITLE1=Lazarus
TTITLE2=Nothing But A Whippoorwill
TTITLE3=Tears Fell On Missouri
TTITLE4=I Used To Love Parades
TTITLE5=Three-Finger Jack
TTITLE6=Message From The Wind
TTITLE7=Quarter Moon
TTITLE8=Wild Urge To Ramble
TTITLE9=No Home To Go Home To
TTITLE10=Wild Bill
TTITLE11=Endless Train
EXTD=
EXTT0=
EXTT1=
EXTT2=
EXTT3=
EXTT4=
EXTT5=
EXTT6=
EXTT7=
EXTT8=
EXTT9=
EXTT10=
EXTT11=
PLAYORDER=
